HIERARCHY
ROOT hip
{
  OFFSET 0 0 0
  CHANNELS 6 Xposition Yposition Zposition Zrotation Yrotation Xrotation
  JOINT abdomen
  {
    OFFSET 0 20.6881 -0.73152
    CHANNELS 3 Zrotation Xrotation Yrotation
    JOINT chest
    {
      OFFSET 0 11.7043 -0.48768
      CHANNELS 3 Zrotation Xrotation Yrotation
      JOINT neck
      {
        OFFSET 0 22.1894 -2.19456
        CHANNELS 3 Zrotation Xrotation Yrotation
        JOINT head
        {
          OFFSET -0.24384 7.07133 1.2192
          CHANNELS 3 Zrotation Xrotation Yrotation
          JOINT leftEye
          {
            OFFSET 4.14528 8.04674 8.04672
            CHANNELS 3 Zrotation Xrotation Yrotation
            End Site
            {
              OFFSET 1 0 0
            }
          }
          JOINT rightEye
          {
            OFFSET -3.6576 8.04674 8.04672
            CHANNELS 3 Zrotation Xrotation Yrotation
            End Site
            {
              OFFSET 1 0 0
            }
          }
        }
      }
      JOINT rCollar
      {
        OFFSET -2.68224 19.2634 -4.8768
        CHANNELS 3 Zrotation Xrotation Yrotation
        JOINT rShldr
        {
          OFFSET -8.77824 -1.95073 1.46304
          CHANNELS 3 Zrotation Xrotation Yrotation
          JOINT rForeArm
          {
            OFFSET -28.1742 -1.7115 0.48768
            CHANNELS 3 Zrotation Xrotation Yrotation
            JOINT rHand
            {
              OFFSET -22.5879 0.773209 7.07136
              CHANNELS 3 Zrotation Xrotation Yrotation
              JOINT rThumb1
              {
                OFFSET -1.2192 -0.487915 3.41376
                CHANNELS 3 Zrotation Xrotation Yrotation
                JOINT rThumb2
                {
                  OFFSET -3.37035 -0.52449 3.41376
                  CHANNELS 3 Zrotation Xrotation Yrotation
                  End Site
                  {
                    OFFSET -1.78271 -1.18214 1.43049
                  }
                }
              }
              JOINT rIndex1
              {
                OFFSET -7.75947 0.938293 5.60832
                CHANNELS 3 Zrotation Xrotation Yrotation
                JOINT rIndex2
                {
                  OFFSET -2.54057 -0.884171 1.56538
                  CHANNELS 3 Zrotation Xrotation Yrotation
                  End Site
                  {
                    OFFSET -1.62519 -0.234802 1.16502
                  }
                }
              }
              JOINT rMid1
              {
                OFFSET -8.24714 1.18213 3.41376
                CHANNELS 3 Zrotation Xrotation Yrotation
                JOINT rMid2
                {
                  OFFSET -3.10165 -0.590103 1.0647
                  CHANNELS 3 Zrotation Xrotation Yrotation
                  End Site
                  {
                    OFFSET -2.48547 -0.328903 0.83742
                  }
                }
              }
              JOINT rRing1
              {
                OFFSET -8.82822 0.546677 1.51678
                CHANNELS 3 Zrotation Xrotation Yrotation
                JOINT rRing2
                {
                  OFFSET -2.60934 -0.819778 -0.0198488
                  CHANNELS 3 Zrotation Xrotation Yrotation
                  End Site
                  {
                    OFFSET -2.33842 -0.294052 0.168128
                  }
                }
              }
              JOINT rPinky1
              {
                OFFSET -8.27202 -0.0477905 -0.4584
                CHANNELS 3 Zrotation Xrotation Yrotation
                JOINT rPinky2
                {
                  OFFSET -1.82734 -0.647385 -0.700984
                  CHANNELS 3 Zrotation Xrotation Yrotation
                  End Site
                  {
                    OFFSET -1.69225 -0.51767 -0.607171
                  }
                }
              }
            }
          }
        }
      }
      JOINT lCollar
      {
        OFFSET 2.68224 19.2634 -4.8768
        CHANNELS 3 Zrotation Xrotation Yrotation
        JOINT lShldr
        {
          OFFSET 8.77824 -1.95073 1.46304
          CHANNELS 3 Zrotation Xrotation Yrotation
          JOINT lForeArm
          {
            OFFSET 28.1742 -1.7115 0.48768
            CHANNELS 3 Zrotation Xrotation Yrotation
            JOINT lHand
            {
              OFFSET 22.5879 0.773209 7.07136
              CHANNELS 3 Zrotation Xrotation Yrotation
              JOINT lThumb1
              {
                OFFSET 1.2192 -0.487915 3.41376
                CHANNELS 3 Zrotation Xrotation Yrotation
                JOINT lThumb2
                {
                  OFFSET 3.37035 -0.52449 3.41376
                  CHANNELS 3 Zrotation Xrotation Yrotation
                  End Site
                  {
                    OFFSET 1.78271 -1.18214 1.43049
                  }
                }
              }
              JOINT lIndex1
              {
                OFFSET 7.75947 0.938293 5.60832
                CHANNELS 3 Zrotation Xrotation Yrotation
                JOINT lIndex2
                {
                  OFFSET 2.54057 -0.884171 1.56538
                  CHANNELS 3 Zrotation Xrotation Yrotation
                  End Site
                  {
                    OFFSET 1.62519 -0.234802 1.16502
                  }
                }
              }
              JOINT lMid1
              {
                OFFSET 8.24714 1.18213 3.41376
                CHANNELS 3 Zrotation Xrotation Yrotation
                JOINT lMid2
                {
                  OFFSET 3.10165 -0.590103 1.0647
                  CHANNELS 3 Zrotation Xrotation Yrotation
                  End Site
                  {
                    OFFSET 2.48547 -0.328903 0.83742
                  }
                }
              }
              JOINT lRing1
              {
                OFFSET 8.82822 0.546677 1.51678
                CHANNELS 3 Zrotation Xrotation Yrotation
                JOINT lRing2
                {
                  OFFSET 2.60934 -0.819778 -0.0198488
                  CHANNELS 3 Zrotation Xrotation Yrotation
                  End Site
                  {
                    OFFSET 2.33842 -0.294052 0.168128
                  }
                }
              }
              JOINT lPinky1
              {
                OFFSET 8.27202 -0.0477905 -0.4584
                CHANNELS 3 Zrotation Xrotation Yrotation
                JOINT lPinky2
                {
                  OFFSET 1.82734 -0.647385 -0.700984
                  CHANNELS 3 Zrotation Xrotation Yrotation
                  End Site
                  {
                    OFFSET 1.69225 -0.51767 -0.607171
                  }
                }
              }
            }
          }
        }
      }
    }
  }
  JOINT rButtock
  {
    OFFSET -8.77824 4.35084 1.2192
    CHANNELS 3 Zrotation Xrotation Yrotation
    JOINT rThigh
    {
      OFFSET 0 -1.70687 -2.19456
      CHANNELS 3 Zrotation Xrotation Yrotation
      JOINT rShin
      {
        OFFSET 0 -36.8199 0.73152
        CHANNELS 3 Zrotation Xrotation Yrotation
        JOINT rFoot
        {
          OFFSET 0.73152 -45.1104 -5.12064
          CHANNELS 3 Zrotation Xrotation Yrotation
          End Site
          {
            OFFSET -1.1221 -3.69964 12.103
          }
        }
      }
    }
  }
  JOINT lButtock
  {
    OFFSET 8.77824 4.35084 1.2192
    CHANNELS 3 Zrotation Xrotation Yrotation
    JOINT lThigh
    {
      OFFSET 0 -1.70687 -2.19456
      CHANNELS 3 Zrotation Xrotation Yrotation
      JOINT lShin
      {
        OFFSET 0 -36.8199 0.73152
        CHANNELS 3 Zrotation Xrotation Yrotation
        JOINT lFoot
        {
          OFFSET -0.73152 -45.1104 -5.12064
          CHANNELS 3 Zrotation Xrotation Yrotation
          End Site
          {
            OFFSET 1.1221 -3.69964 12.103
          }
        }
      }
    }
  }
}
MOTION
Frames:	9
Frame Time:	0.00833333
8.91356 83.4014 -119.856 13.9838 -5.8737 2.8262 10.3404 12.5237 -0.00236285 9.22248 -4.57715 0.516113 14.8361 -7.72951 2.69597 -26.8607 11.644 1.87994 -0.0 0.0 0.0 -0.0 0.0 0.0 2.72129e-13 -1.25744e-13 1.93403e-13 51.7399 -3.077 -3.68424 -16.0537 -8.73725 29.786 -0.313701 -15.7363 -2.26953 1.54135e-09 -1.04062e-09 9.83379e-10 2.66002e-09 -1.7916e-09 1.71503e-09 1.54135e-09 -1.04061e-09 9.83371e-10 7.73091 5.47488 0.417314 1.54135e-09 -1.04062e-09 9.8338e-10 2.90554 0.965183 0.102902 1.54136e-09 -1.04062e-09 9.8338e-10 10.2786 0.731801 0.0259123 1.54135e-09 -1.04062e-09 9.83389e-10 2.22167 -0.733487 -0.20892 2.72038e-13 -1.25681e-13 1.9314e-13 -70.485 50.9213 -13.4028 19.3857 -12.2582 -37.209 0.0113381 -3.03401 0.426808 -3.31114e-09 -3.37533e-09 -1.03914e-09 -5.72729e-09 -5.85199e-09 -1.80458e-09 -3.31114e-09 -3.37532e-09 -1.03913e-09 -7.73091 5.47488 -0.417314 -3.31114e-09 -3.37532e-09 -1.03914e-09 -2.90554 0.965183 -0.102902 -3.31115e-09 -3.37533e-09 -1.03914e-09 -10.2786 0.731801 -0.0259123 -3.31114e-09 -3.37532e-09 -1.03915e-09 -2.22167 -0.733487 0.20892 -2.03217e-16 0.0 -3.88251e-19 -26.2115 -29.7823 -0.948799 -2.39075 71.2736 2.44922 2.13499 19.7584 -11.6423 2.03217e-16 0.0 3.88251e-19 -19.5094 -12.1241 6.92847 0.0446891 13.0074 0.0338015 0.410152 0.655971 9.44069
8.98728 83.3502 -119.278 14.0301 -5.8638 2.8216 10.2707 12.454 -0.208202 9.3431 -4.62963 0.469022 14.8434 -7.61747 2.75579 -27.0165 11.688 2.05128 -0.0 0.0 0.0 -0.0 0.0 0.0 6.13575e-14 -1.32577e-13 1.04464e-13 51.893 -2.96749 -4.13912 -16.0135 -8.69975 29.701 -0.312021 -15.6948 -2.26324 1.46428e-09 -8.1016e-10 5.98142e-10 2.52765e-09 -1.39476e-09 1.04887e-09 1.46428e-09 -8.10154e-10 5.98135e-10 7.73091 5.47488 0.417314 1.46428e-09 -8.10155e-10 5.98144e-10 2.90554 0.965183 0.102902 1.46428e-09 -8.10154e-10 5.98143e-10 10.2786 0.731801 0.0259123 1.46428e-09 -8.10155e-10 5.98152e-10 2.22167 -0.733487 -0.20892 6.13895e-14 -1.32501e-13 1.04263e-13 -70.4799 50.0471 -13.4595 19.4889 -12.382 -37.454 0.0126555 -3.19749 0.449856 -1.42194e-09 -7.2378e-10 -2.61163e-10 -2.46334e-09 -1.26081e-09 -4.54279e-10 -1.42194e-09 -7.23775e-10 -2.61154e-10 -7.73091 5.47488 -0.417314 -1.42194e-09 -7.23771e-10 -2.61158e-10 -2.90554 0.965183 -0.102902 -1.42195e-09 -7.23777e-10 -2.6116e-10 -10.2786 0.731801 -0.0259123 -1.42193e-09 -7.23769e-10 -2.61169e-10 -2.22167 -0.733487 0.20892 -2.03217e-16 0.0 -3.88251e-19 -26.348 -30.9908 -1.38911 -2.46505 71.7351 2.54877 1.85496 18.2093 -11.9796 2.03217e-16 0.0 3.88251e-19 -19.6242 -11.9591 6.7993 0.0424618 13.4227 0.00587018 0.492627 0.280194 9.74159
9.05454 83.2977 -118.702 14.0811 -5.8402 2.8263 10.1986 12.3783 -0.411794 9.47563 -4.68399 0.423913 14.8497 -7.51911 2.81513 -27.1712 11.7456 2.2217 -0.0 0.0 0.0 -0.0 0.0 0.0 -1.73735e-13 -1.40725e-13 1.18467e-14 52.0354 -2.8531 -4.59965 -15.9664 -8.65599 29.6017 -0.308942 -15.6196 -2.25184 1.38737e-09 -5.49491e-10 1.68949e-10 2.39566e-09 -9.45781e-10 3.06813e-10 1.38738e-09 -5.49486e-10 1.68943e-10 7.73091 5.47488 0.417314 1.38737e-09 -5.49488e-10 1.68953e-10 2.90554 0.965183 0.102902 1.38738e-09 -5.49486e-10 1.68949e-10 10.2786 0.731801 0.0259123 1.38737e-09 -5.49486e-10 1.68959e-10 2.22167 -0.733487 -0.20892 -1.7359e-13 -1.40641e-13 1.17081e-14 -70.471 49.1971 -13.5226 19.5958 -12.5115 -37.7085 0.0141399 -3.38035 0.475642 7.62457e-10 2.25511e-09 5.67033e-10 1.31103e-09 3.89761e-09 9.83557e-10 7.62456e-10 2.25512e-09 5.67041e-10 -7.73091 5.47488 -0.417314 7.62458e-10 2.25512e-09 5.67039e-10 -2.90554 0.965183 -0.102902 7.62448e-10 2.25511e-09 5.67037e-10 -10.2786 0.731801 -0.0259123 7.62461e-10 2.25512e-09 5.67032e-10 -2.22167 -0.733487 0.20892 -2.03217e-16 0.0 -3.88251e-19 -26.4743 -32.1557 -1.80623 -2.50904 72.0221 2.62232 1.53759 16.6399 -12.2217 2.03217e-16 0.0 3.88251e-19 -19.733 -11.812 6.66877 0.0402369 13.8593 -0.0233786 0.582516 -0.0999945 10.0426
9.12023 83.2462 -118.126 14.1544 -5.8073 2.8373 10.1046 12.3034 -0.604567 9.61214 -4.73782 0.381876 14.848 -7.44159 2.86576 -27.3081 11.7917 2.36824 -0.0 0.0 0.0 -0.0 0.0 0.0 -3.40625e-13 -1.46347e-13 -5.40197e-14 52.177 -2.75478 -5.06999 -15.9159 -8.60929 29.4952 -0.304587 -15.5137 -2.23577 1.29374e-09 -3.31859e-10 -1.80255e-10 2.23475e-09 -5.71049e-10 -2.9739e-10 1.29374e-09 -3.31855e-10 -1.80261e-10 7.73091 5.47488 0.417314 1.29374e-09 -3.31857e-10 -1.80252e-10 2.90554 0.965183 0.102902 1.29374e-09 -3.31856e-10 -1.80256e-10 10.2786 0.731801 0.0259123 1.29374e-09 -3.31855e-10 -1.80245e-10 2.22167 -0.733487 -0.20892 -3.40435e-13 -1.46263e-13 -5.41191e-14 -70.4208 48.4138 -13.6122 19.7102 -12.6517 -37.9811 0.0159526 -3.60354 0.50712 2.5125e-09 4.61263e-09 1.12879e-09 4.33553e-09 7.98128e-09 1.95987e-09 2.5125e-09 4.61263e-09 1.1288e-09 -7.73091 5.47488 -0.417314 2.51251e-09 4.61263e-09 1.12879e-09 -2.90554 0.965183 -0.102902 2.5125e-09 4.61263e-09 1.12879e-09 -10.2786 0.731801 -0.0259123 2.51251e-09 4.61263e-09 1.12879e-09 -2.22167 -0.733487 0.20892 -2.03217e-16 0.0 -3.88251e-19 -26.6155 -33.2555 -2.19878 -2.5193 72.1254 2.66391 1.19613 15.0582 -12.3761 2.03217e-16 0.0 3.88251e-19 -19.8586 -11.6306 6.55029 0.0376934 14.231 -0.0515518 0.671375 -0.461854 10.3093
9.18695 83.1897 -117.551 14.2475 -5.7554 2.8583 9.97297 12.2284 -0.786552 9.75588 -4.78994 0.342502 14.8347 -7.39161 2.90397 -27.4212 11.8246 2.48211 -0.0 0.0 0.0 -0.0 0.0 0.0 -4.26354e-13 -1.4882e-13 -8.33249e-14 52.3173 -2.66704 -5.55185 -15.8627 -8.56029 29.3832 -0.298878 -15.3729 -2.21444 1.1824e-09 -1.39746e-10 -4.47228e-10 2.04322e-09 -2.40303e-10 -7.59896e-10 1.18241e-09 -1.39744e-10 -4.47236e-10 7.73091 5.47488 0.417314 1.1824e-09 -1.39745e-10 -4.47227e-10 2.90554 0.965183 0.102902 1.1824e-09 -1.39744e-10 -4.47229e-10 10.2786 0.731801 0.0259123 1.1824e-09 -1.39742e-10 -4.47219e-10 2.22167 -0.733487 -0.20892 -4.26226e-13 -1.48747e-13 -8.34193e-14 -70.3174 47.7018 -13.7406 19.8323 -12.8026 -38.2741 0.0184758 -3.89712 0.548545 3.86679e-09 6.37065e-09 1.32756e-09 6.67739e-09 1.10293e-08 2.30818e-09 3.86679e-09 6.37065e-09 1.32757e-09 -7.73091 5.47488 -0.417314 3.86679e-09 6.37064e-09 1.32757e-09 -2.90554 0.965183 -0.102902 3.86678e-09 6.37065e-09 1.32757e-09 -10.2786 0.731801 -0.0259123 3.8668e-09 6.37065e-09 1.32757e-09 -2.22167 -0.733487 0.20892 -2.03217e-16 0.0 -3.88251e-19 -26.7847 -34.2829 -2.5664 -2.49037 72.0342 2.66949 0.828351 13.4432 -12.3839 2.03217e-16 0.0 3.88251e-19 -20.0152 -11.3989 6.4412 0.0344154 14.5115 -0.0783041 0.755319 -0.795951 10.5324
9.25414 83.1263 -116.974 14.3672 -5.6976 2.8808 9.81756 12.1506 -0.961553 9.9093 -4.84181 0.305446 14.8143 -7.36376 2.93467 -27.5198 11.8561 2.57641 -0.0 0.0 0.0 -0.0 0.0 0.0 -4.76364e-13 -1.50059e-13 -9.28635e-14 52.4519 -2.58239 -6.04282 -15.805 -8.50723 29.262 -0.291905 -15.1972 -2.1879 1.06118e-09 5.35623e-11 -6.87803e-10 1.83467e-09 9.25387e-11 -1.17699e-09 1.0612e-09 5.35617e-11 -6.87816e-10 7.73091 5.47488 0.417314 1.06118e-09 5.35624e-11 -6.87806e-10 2.90554 0.965183 0.102902 1.06119e-09 5.3563e-11 -6.87806e-10 10.2786 0.731801 0.0259123 1.06118e-09 5.35654e-11 -6.87797e-10 2.22167 -0.733487 -0.20892 -4.76365e-13 -1.50007e-13 -9.29722e-14 -70.1829 47.0408 -13.8929 19.9598 -12.9613 -38.5828 0.021836 -4.24176 0.597221 5.1367e-09 7.94352e-09 1.33627e-09 8.87432e-09 1.37585e-08 2.32801e-09 5.1367e-09 7.94353e-09 1.33629e-09 -7.73091 5.47488 -0.417314 5.1367e-09 7.94353e-09 1.33628e-09 -2.90554 0.965183 -0.102902 5.13669e-09 7.94353e-09 1.33628e-09 -10.2786 0.731801 -0.0259123 5.1367e-09 7.94353e-09 1.33627e-09 -2.22167 -0.733487 0.20892 -2.03217e-16 0.0 -3.88251e-19 -26.9609 -35.2503 -2.90731 -2.42374 71.7563 2.64129 0.447479 11.7951 -12.2675 2.03217e-16 0.0 3.88251e-19 -20.1878 -11.1455 6.33648 0.0305681 14.748 -0.104789 0.838307 -1.1157 10.7301
9.3194 83.0566 -116.398 14.4999 -5.6327 2.9067 9.66361 12.0743 -1.12669 10.0633 -4.89501 0.271884 14.7915 -7.34702 2.96254 -27.6101 11.8811 2.66103 -0.0 0.0 0.0 -0.0 0.0 0.0 -4.8573e-13 -1.50029e-13 -9.21118e-14 52.5842 -2.51875 -6.5409 -15.7423 -8.4499 29.1305 -0.284034 -14.9961 -2.15756 9.26425e-10 1.88613e-10 -8.65151e-10 1.60271e-09 3.24832e-10 -1.4851e-09 9.26441e-10 1.8861e-10 -8.65168e-10 7.73091 5.47488 0.417314 9.26425e-10 1.88613e-10 -8.65159e-10 2.90554 0.965183 0.102902 9.26428e-10 1.88613e-10 -8.65155e-10 10.2786 0.731801 0.0259123 9.26422e-10 1.88616e-10 -8.65147e-10 2.22167 -0.733487 -0.20892 -4.85869e-13 -1.5e-13 -9.22427e-14 -70.031 46.4351 -14.0477 20.0928 -13.1288 -38.9067 0.0256521 -4.58431 0.645659 6.00187e-09 8.97127e-09 1.24245e-09 1.03718e-08 1.55431e-08 2.16929e-09 6.00186e-09 8.97127e-09 1.24247e-09 -7.73091 5.47488 -0.417314 6.00187e-09 8.97127e-09 1.24246e-09 -2.90554 0.965183 -0.102902 6.00186e-09 8.97127e-09 1.24245e-09 -10.2786 0.731801 -0.0259123 6.00187e-09 8.97127e-09 1.24245e-09 -2.22167 -0.733487 0.20892 -2.03217e-16 0.0 -3.88251e-19 -27.1173 -36.1658 -3.21756 -2.32883 71.3098 2.58508 0.0785429 10.1556 -12.1524 2.03217e-16 0.0 3.88251e-19 -20.3552 -10.8849 6.24608 0.0265505 14.9639 -0.130826 0.922949 -1.43278 10.9099
9.37841 82.9783 -115.824 14.6278 -5.5867 2.9362 9.53637 12.0037 -1.27908 10.2088 -4.95111 0.242995 14.7707 -7.3304 2.99228 -27.6986 11.8949 2.74583 -0.0 0.0 0.0 -0.0 0.0 0.0 -4.49526e-13 -1.48698e-13 -9.05464e-14 52.717 -2.49395 -7.04407 -15.6743 -8.38811 28.988 -0.275603 -14.7789 -2.12485 7.74454e-10 2.05954e-10 -9.42443e-10 1.34097e-09 3.53932e-10 -1.62065e-09 7.74472e-10 2.0595e-10 -9.42462e-10 7.73091 5.47488 0.417314 7.74454e-10 2.05954e-10 -9.42452e-10 2.90554 0.965183 0.102902 7.74458e-10 2.05953e-10 -9.42448e-10 10.2786 0.731801 0.0259123 7.74451e-10 2.05956e-10 -9.4244e-10 2.22167 -0.733487 -0.20892 -4.49756e-13 -1.48686e-13 -9.06955e-14 -69.8742 45.8892 -14.1848 20.2315 -13.3057 -39.245 0.0291958 -4.87161 0.686331 6.14195e-09 9.09387e-09 1.13362e-09 1.06152e-08 1.57578e-08 1.98197e-09 6.14195e-09 9.09388e-09 1.13364e-09 -7.73091 5.47488 -0.417314 6.14195e-09 9.09388e-09 1.13363e-09 -2.90554 0.965183 -0.102902 6.14194e-09 9.09388e-09 1.13363e-09 -10.2786 0.731801 -0.0259123 6.14195e-09 9.09388e-09 1.13362e-09 -2.22167 -0.733487 0.20892 -2.03217e-16 0.0 -3.88251e-19 -27.2275 -37.0372 -3.49315 -2.21596 70.713 2.50753 -0.268101 8.56965 -12.1603 2.03217e-16 0.0 3.88251e-19 -20.4964 -10.6315 6.17987 0.0228042 15.1826 -0.156244 1.01217 -1.75879 11.0788
9.42572 82.8982 -115.253 14.7318 -5.5483 2.9725 9.44096 11.9428 -1.41517 10.3434 -5.01143 0.220188 14.7528 -7.31499 3.02584 -27.787 11.8988 2.83484 -0.0 0.0 0.0 -0.0 0.0 0.0 -3.23818e-13 -1.44959e-13 -8.21058e-14 52.8507 -2.50954 -7.55726 -15.6008 -8.3216 28.8342 -0.266215 -14.5343 -2.08807 5.74581e-10 3.81079e-11 -8.32091e-10 9.96233e-10 6.34321e-11 -1.4327e-09 5.74596e-10 3.8107e-11 -8.3211e-10 7.73091 5.47488 0.417314 5.7458e-10 3.81102e-11 -8.32101e-10 2.90554 0.965183 0.102902 5.74586e-10 3.81096e-11 -8.32097e-10 10.2786 0.731801 0.0259123 5.74579e-10 3.8111e-11 -8.32089e-10 2.22167 -0.733487 -0.20892 -3.24073e-13 -1.44958e-13 -8.2272e-14 -69.7094 45.4059 -14.3031 20.3751 -13.4912 -39.598 0.0318351 -5.07548 0.715213 5.11487e-09 7.78019e-09 9.98916e-10 8.84028e-09 1.34812e-08 1.74565e-09 5.11487e-09 7.7802e-09 9.98932e-10 -7.73091 5.47488 -0.417314 5.11487e-09 7.78019e-09 9.98919e-10 -2.90554 0.965183 -0.102902 5.11486e-09 7.78019e-09 9.98919e-10 -10.2786 0.731801 -0.0259123 5.11487e-09 7.78019e-09 9.98913e-10 -2.22167 -0.733487 0.20892 -2.03217e-16 0.0 -3.88251e-19 -27.2751 -37.8712 -3.72023 -2.08939 69.9678 2.41288 -0.611048 7.00361 -12.307 2.03217e-16 0.0 3.88251e-19 -20.6055 -10.408 6.14786 0.0191187 15.4486 -0.181782 1.11183 -2.11211 11.2438
